<svg width="200" height="200" viewBox="0 0 200 200" fill="none" xmlns="http://www.w3.org/2000/svg">
<path d="M109.99 53.1431C109.99 32.0761 127.068 15 148.136 15C169.198 15 186.28 32.0751 186.28 53.1431C186.28 74.2111 169.199 91.2842 148.136 91.2842C127.068 91.2842 109.99 74.2121 109.99 53.1431Z" fill="#FFC338"/>
<path d="M32.041 184.86H136.698C147.215 184.86 155.74 176.335 155.74 165.821V64.8384C155.74 54.3204 147.215 45.7954 136.698 45.7954H32.041C21.527 45.7954 13 54.3204 13 64.8384V165.821C13 176.335 21.527 184.86 32.041 184.86Z" fill="url(#paint0_linear_2866_707)"/>
<path d="M32.041 184.86H136.698C147.215 184.86 155.74 176.335 155.74 165.821V149.434C135.963 145.648 111.219 143.403 84.369 143.403C57.521 143.403 32.779 145.648 13 149.434V165.821C13 176.335 21.527 184.86 32.041 184.86Z" fill="url(#paint1_linear_2866_707)"/>
<path d="M109.99 53.1431C109.99 50.6291 110.234 48.1734 110.7 45.7944H136.698C147.215 45.7944 155.74 54.319 155.74 64.833V90.5264C153.285 91.0294 150.74 91.2832 148.136 91.2832C127.069 91.2832 109.99 74.2112 109.99 53.1392V53.1431Z" fill="url(#paint2_linear_2866_707)"/>
<path d="M112.268 144.587H137.332V167.595H112.268V144.587ZM63.83 171.92H103.74V140.258H63.83V171.92ZM28.927 71.5942V83.3911L52.109 83.3711V87.811L60.921 77.4834L52.109 67.1504V71.5933H50.509H49.324L28.927 71.5942ZM28.927 111.765V162.913L52.109 162.897V167.34L60.921 157.008L52.109 146.676V151.119H40.052V123.212H60.92V111.764L28.927 111.765ZM63.83 100.404H103.74V132.065H63.83V100.404ZM116.631 125.618L107.817 115.29L116.631 104.958V109.401H128.69V81.4951H107.817V70.0435H139.809V121.199L116.631 121.179V125.618ZM63.83 59.8042H103.74V91.4702H63.83V59.8042Z" fill="url(#paint3_linear_2866_707)"/>
<defs>
<linearGradient id="paint0_linear_2866_707" x1="156.764" y1="114.244" x2="11.9782" y2="116.407" gradientUnits="userSpaceOnUse">
<stop stop-color="#8C63CF"/>
<stop offset="1" stop-color="#4634EA"/>
</linearGradient>
<linearGradient id="paint1_linear_2866_707" x1="14.1662" y1="140.057" x2="154.415" y2="188.691" gradientUnits="userSpaceOnUse">
<stop stop-color="#1B2BBB"/>
<stop offset="1" stop-color="#2A9CE2"/>
</linearGradient>
<linearGradient id="paint2_linear_2866_707" x1="110.614" y1="52.3783" x2="158.418" y2="78.7188" gradientUnits="userSpaceOnUse">
<stop stop-color="#1E30D2"/>
<stop offset="1" stop-color="#EABE7A"/>
</linearGradient>
<linearGradient id="paint3_linear_2866_707" x1="3.97643" y1="54.7225" x2="144.486" y2="162.656" gradientUnits="userSpaceOnUse">
<stop stop-color="#1AFFFF"/>
<stop offset="0.2127" stop-color="#1AFBFE"/>
<stop offset="0.434" stop-color="#19EEFB"/>
<stop offset="0.6592" stop-color="#19DAF7"/>
<stop offset="0.8857" stop-color="#18BDF0"/>
<stop offset="1" stop-color="#17ABEC"/>
</linearGradient>
</defs>
</svg>
